<?xml version="1.0" standalone="no"?>
<!DOCTYPE svg PUBLIC "-//W3C//DTD SVG 20010904//EN"
 "http://www.w3.org/TR/2001/REC-SVG-20010904/DTD/svg10.dtd">
<svg version="1.0" xmlns="http://www.w3.org/2000/svg"
 width="400.000000pt" height="375.000000pt" viewBox="0 0 400.000000 375.000000"
 preserveAspectRatio="xMidYMid meet">
<metadata>
Created by potrace 1.16, written by Peter Selinger 2001-2019
</metadata>
<g transform="translate(0.000000,375.000000) scale(0.065359,-0.067204)"
fill="#000000" stroke="none">
<path d="M4708 4529 c-16 -9 -18 -32 -18 -244 0 -128 3 -240 6 -249 5 -14 36
-16 236 -16 l230 0 62 -60 c35 -33 65 -60 69 -60 3 0 7 26 9 58 l3 57 65 3
c36 2 68 8 72 15 4 7 8 119 8 249 0 220 -1 238 -18 247 -26 14 -701 14 -724 0z"/>
<path d="M3027 4439 c-148 -22 -294 -170 -314 -318 -5 -36 -3 -38 24 -44 33
-6 81 -50 94 -85 5 -13 9 -60 9 -105 0 -102 -18 -143 -77 -175 -42 -23 -43
-25 -43 -73 0 -40 5 -55 25 -74 31 -32 95 -36 95 -6 0 23 48 64 167 142 141
93 179 142 213 275 5 22 24 61 41 85 16 24 41 61 55 81 53 76 50 158 -7 222
-58 67 -161 94 -282 75z"/>
<path d="M2757 4370 c-146 -57 -215 -142 -232 -289 -10 -89 -35 -122 -137
-182 l-66 -39 -420 0 c-467 0 -432 6 -432 -71 l0 -39 385 0 385 0 -3 -82 -3
-83 -184 -3 c-209 -3 -220 -6 -220 -74 l0 -38 195 0 c183 0 195 -1 195 -19 0
-28 -41 -82 -122 -163 -41 -40 -82 -91 -93 -113 -51 -109 7 -241 148 -337 149
-101 296 -115 394 -38 14 11 28 18 30 16 3 -2 -18 -103 -46 -224 -28 -121 -51
-228 -51 -238 0 -11 11 -54 25 -97 14 -43 25 -95 25 -117 0 -48 -1 -47 171
-106 l130 -44 250 0 249 0 0 55 c0 73 22 178 71 333 58 186 75 289 62 378 -6
39 -21 93 -34 119 -51 103 -187 218 -312 264 -32 11 -62 21 -68 21 -5 0 9 -34
31 -76 22 -42 40 -86 40 -100 0 -66 -123 -123 -240 -111 -70 8 -148 33 -179
58 -23 19 -23 20 -7 62 8 23 31 110 50 193 19 83 44 184 55 225 12 40 21 74
21 75 0 1 -18 4 -39 8 -71 11 -111 70 -111 161 0 29 -5 35 -33 44 -72 24 -107
88 -107 196 0 83 30 143 86 170 37 18 43 26 53 71 16 72 63 165 106 213 21 23
36 41 34 41 -2 -1 -26 -9 -52 -20z m-107 -1143 c0 -27 -32 -134 -56 -187 -50
-110 -115 -176 -197 -198 -46 -13 -67 -7 -67 19 0 21 2 22 66 39 86 21 178
140 219 283 15 51 35 77 35 44z"/>
<path d="M3376 3843 c-3 -10 -8 -35 -12 -55 l-6 -38 666 0 667 0 -3 53 -3 52
-652 3 c-614 2 -652 1 -657 -15z"/>
<path d="M3222 3525 l-52 -55 585 0 585 0 0 33 c0 18 -7 43 -16 55 l-15 22
-517 0 -517 -1 -53 -54z"/>
<path d="M3806 3295 c-197 -75 -257 -307 -120 -463 58 -67 119 -95 209 -96
307 -3 406 405 132 546 -54 27 -166 34 -221 13z m224 -200 c6 -8 10 -18 8 -23
-7 -18 -153 -172 -163 -172 -6 0 -35 24 -64 54 -48 49 -52 55 -39 75 17 28 26
27 65 -11 l33 -32 63 62 c65 65 77 71 97 47z"/>
<path d="M4455 3219 c40 -76 58 -137 85 -284 26 -142 52 -220 99 -292 38 -60
104 -124 160 -156 l32 -19 -7 29 c-29 128 -101 300 -178 429 -40 66 -42 74
-22 74 32 0 149 -230 202 -395 l32 -100 12 44 c43 158 33 217 -57 342 -33 46
-81 125 -107 174 -70 135 -142 198 -239 211 l-46 7 34 -64z"/>
<path d="M5057 2813 c-2 -4 -1 -35 4 -68 14 -89 13 -318 -1 -415 -7 -47 -28
-133 -47 -192 l-35 -108 -222 0 c-159 0 -225 -3 -234 -12 -14 -14 -16 -134 -3
-143 6 -3 254 -6 552 -6 431 0 544 3 551 13 4 7 8 39 8 70 0 47 -4 59 -20 68
-14 7 -119 11 -308 10 -158 -1 -290 -1 -294 -1 -4 1 2 22 12 47 49 113 73 242
78 414 4 162 -7 303 -26 322 -5 5 -12 6 -15 1z"/>
<path d="M712 2340 c2 -7 42 -23 89 -36 164 -44 303 -106 434 -194 76 -51 185
-146 185 -161 0 -5 -152 -9 -358 -9 -329 0 -360 -1 -392 -19 -94 -49 -108
-175 -28 -247 50 -46 70 -47 611 -41 347 4 518 2 540 -5 18 -6 43 -21 58 -34
l25 -24 1378 0 1378 0 -6 23 c-3 12 -13 66 -23 120 l-16 97 -1379 0 -1378 0 0
-53 c0 -29 5 -58 12 -65 9 -9 -85 -12 -424 -12 l-436 0 -30 25 c-38 31 -48 81
-28 130 28 65 33 66 519 65 238 0 438 0 445 0 6 0 12 9 12 20 0 19 -7 20 -218
20 l-218 0 -37 44 c-48 58 -200 171 -307 229 -136 73 -420 162 -408 127z"/>
<path d="M855 1320 c-189 -6 -208 -11 -245 -73 -24 -39 -26 -106 -5 -147 8
-16 32 -41 52 -55 l38 -25 602 0 c596 0 603 0 603 20 0 20 -7 20 -452 20 -432
0 -455 1 -485 20 -45 27 -61 87 -36 138 10 20 29 42 43 49 19 10 137 13 478
13 445 0 452 0 452 20 0 20 -7 20 -424 20 -233 0 -430 1 -438 3 -7 1 -90 0
-183 -3z"/>
<path d="M4636 1151 c-51 -3 -91 -11 -93 -17 -2 -6 5 -21 15 -34 15 -19 29
-23 72 -24 49 -1 55 -4 60 -26 l6 -25 373 -3 373 -2 10 28 c10 26 16 29 62 29
40 1 54 6 68 24 10 12 17 27 15 33 -2 6 -43 13 -98 16 -128 8 -753 8 -863 1z"/>
<path d="M2509 1091 c-16 -16 -29 -39 -29 -50 l0 -21 606 0 606 0 -6 28 c-4
15 -18 37 -32 50 l-25 22 -545 0 -546 0 -29 -29z"/>
</g>
</svg>
